<?xml version="1.0" encoding="UTF-8"?>
<svg id="Capa_2" data-name="Capa 2" xmlns="http://www.w3.org/2000/svg" viewBox="0 0 467.11 139.35">
  <defs>
    <style>
      .cls-1 {
        fill: #073320;
      }
    </style>
  </defs>
  <g id="Capa_1-2" data-name="Capa 1">
    <g>
      <path class="cls-1" d="M104.38,0l2.79,45.3h-2.79c-3.72-13.56-9.04-23.32-15.94-29.28-6.9-5.96-15.19-8.94-24.86-8.94-8.11,0-15.43,2.24-21.98,6.73-6.55,4.49-11.69,11.65-15.45,21.47-3.75,9.83-5.63,22.05-5.63,36.66,0,12.05,1.77,22.5,5.31,31.35,3.54,8.84,8.87,15.62,15.98,20.34,7.12,4.72,15.24,7.08,24.36,7.08,7.93,0,14.92-1.85,20.98-5.55,6.06-3.7,12.73-11.06,19.99-22.06l2.79,1.97c-6.12,11.86-13.27,20.54-21.44,26.04-8.17,5.5-17.86,8.26-29.09,8.26-20.23,0-35.91-8.19-47.01-24.57C4.14,102.6,0,88.25,0,71.74c0-13.3,2.73-25.52,8.2-36.66,5.46-11.14,12.98-19.77,22.56-25.9C40.33,3.06,50.79,0,62.14,0c8.83,0,17.53,2.36,26.12,7.08,2.52,1.44,4.32,2.16,5.4,2.16,1.62,0,3.03-.62,4.23-1.87,1.56-1.77,2.67-4.23,3.33-7.37h3.15Z"/>
      <path class="cls-1" d="M147.28,35.93c8.87,0,15.99,3.37,21.36,10.11,4.56,5.76,6.84,12.36,6.84,19.83,0,5.24-1.26,10.55-3.77,15.92-2.51,5.37-5.98,9.42-10.39,12.15-4.41,2.73-9.33,4.09-14.74,4.09-8.82,0-15.84-3.52-21.04-10.55-4.39-5.93-6.59-12.58-6.59-19.95,0-5.37,1.33-10.71,4-16.02,2.67-5.31,6.17-9.23,10.52-11.77,4.35-2.54,8.95-3.81,13.82-3.81M145.3,40.08c-2.26,0-4.53.67-6.81,2.02-2.28,1.34-4.12,3.7-5.53,7.07-1.41,3.37-2.11,7.7-2.11,12.98,0,8.53,1.7,15.88,5.08,22.07,3.39,6.18,7.86,9.27,13.4,9.27,4.14,0,7.55-1.7,10.23-5.12,2.68-3.41,4.03-9.27,4.03-17.59,0-10.4-2.24-18.59-6.71-24.56-3.03-4.09-6.89-6.14-11.58-6.14"/>
      <path class="cls-1" d="M214.34,35.93c8.87,0,15.99,3.37,21.36,10.11,4.56,5.76,6.84,12.36,6.84,19.83,0,5.24-1.26,10.55-3.77,15.92-2.51,5.37-5.98,9.42-10.39,12.15-4.41,2.73-9.33,4.09-14.74,4.09-8.82,0-15.84-3.52-21.04-10.55-4.39-5.93-6.59-12.58-6.59-19.95,0-5.37,1.33-10.71,4-16.02,2.67-5.31,6.17-9.23,10.52-11.77,4.35-2.54,8.95-3.81,13.81-3.81M212.36,40.08c-2.26,0-4.53.67-6.81,2.02-2.28,1.34-4.12,3.7-5.53,7.07-1.41,3.37-2.11,7.7-2.11,12.98,0,8.53,1.7,15.88,5.08,22.07,3.39,6.18,7.86,9.27,13.4,9.27,4.14,0,7.55-1.7,10.23-5.12,2.68-3.41,4.03-9.27,4.03-17.59,0-10.4-2.24-18.59-6.71-24.56-3.03-4.09-6.89-6.14-11.58-6.14"/>
      <path class="cls-1" d="M270.08,5.29v58.26l14.9-13.56c3.16-2.9,4.99-4.73,5.5-5.5.34-.51.51-1.02.51-1.54,0-.85-.35-1.59-1.05-2.21-.71-.62-1.87-.97-3.49-1.05v-2.05h25.45v2.05c-3.5.09-6.41.62-8.73,1.6-2.32.98-4.87,2.73-7.64,5.24l-15.03,13.88,15.03,19c4.18,5.24,6.99,8.57,8.44,9.98,2.05,2,3.84,3.3,5.37,3.9,1.07.43,2.92.64,5.56.64v2.3h-28.46v-2.3c1.62-.04,2.72-.29,3.29-.74.58-.45.86-1.08.86-1.89,0-.98-.85-2.56-2.56-4.73l-17.97-22.96v19.44c0,3.8.27,6.29.8,7.48.53,1.19,1.29,2.05,2.27,2.56.98.51,3.11.79,6.4.83v2.3h-29.8v-2.3c2.98,0,5.22-.36,6.72-1.09.9-.47,1.58-1.19,2.05-2.17.64-1.41.96-3.84.96-7.29V30.04c0-6.78-.15-10.93-.45-12.44-.3-1.51-.79-2.56-1.47-3.13-.68-.58-1.58-.86-2.68-.86-.9,0-2.24.36-4.03,1.09l-1.09-2.24,17.4-7.16h2.94Z"/>
      <path class="cls-1" d="M340.02,35.93v47.07c0,3.67.27,6.11.8,7.32.53,1.22,1.32,2.12,2.37,2.72,1.04.6,2.95.9,5.72.9v2.3h-28.46v-2.3c2.86,0,4.78-.28,5.76-.83.98-.55,1.76-1.47,2.33-2.75.58-1.28.86-3.73.86-7.35v-22.58c0-6.35-.19-10.47-.58-12.34-.3-1.36-.77-2.31-1.41-2.85-.64-.53-1.52-.8-2.62-.8-1.19,0-2.64.32-4.35.96l-.89-2.3,17.65-7.16h2.81ZM334.71,5.29c1.79,0,3.31.63,4.57,1.89,1.26,1.26,1.89,2.78,1.89,4.57s-.63,3.33-1.89,4.6c-1.26,1.28-2.78,1.92-4.57,1.92s-3.33-.64-4.6-1.92c-1.28-1.28-1.92-2.81-1.92-4.6s.63-3.32,1.89-4.57c1.26-1.26,2.8-1.89,4.64-1.89"/>
      <path class="cls-1" d="M374.85,48.33c6.86-8.27,13.41-12.41,19.64-12.41,3.2,0,5.95.8,8.25,2.4,2.3,1.6,4.14,4.23,5.5,7.9.94,2.56,1.41,6.48,1.41,11.77v25.01c0,3.71.3,6.23.9,7.55.47,1.07,1.22,1.9,2.27,2.49,1.05.6,2.97.9,5.79.9v2.3h-28.97v-2.3h1.21c2.73,0,4.64-.41,5.73-1.25,1.09-.83,1.84-2.06,2.27-3.68.17-.64.26-2.64.26-6.01v-23.98c0-5.33-.69-9.2-2.08-11.61-1.39-2.41-3.72-3.61-7-3.61-5.07,0-10.13,2.77-15.16,8.31v30.89c0,3.97.23,6.42.7,7.35.6,1.24,1.42,2.14,2.46,2.72,1.04.58,3.16.86,6.36.86v2.3h-28.97v-2.3h1.28c2.98,0,5-.76,6.05-2.27,1.04-1.51,1.57-4.4,1.57-8.66v-21.74c0-7.04-.16-11.32-.48-12.85-.32-1.54-.81-2.58-1.47-3.13-.66-.55-1.55-.83-2.65-.83-1.2,0-2.62.32-4.29.96l-.96-2.3,17.65-7.16h2.75v12.41Z"/>
      <path class="cls-1" d="M462.7,35.93v19.96h-2.11c-1.62-6.27-3.7-10.53-6.23-12.79-2.54-2.26-5.77-3.39-9.69-3.39-2.99,0-5.39.79-7.23,2.37s-2.75,3.33-2.75,5.24c0,2.39.68,4.44,2.05,6.14,1.32,1.75,4.01,3.6,8.06,5.56l9.34,4.54c8.65,4.22,12.98,9.79,12.98,16.69,0,5.33-2.02,9.63-6.04,12.89-4.03,3.26-8.54,4.89-13.53,4.89-3.58,0-7.68-.64-12.28-1.92-1.41-.43-2.56-.64-3.45-.64-.98,0-1.75.55-2.3,1.66h-2.11v-20.91h2.11c1.19,5.97,3.47,10.47,6.84,13.49,3.37,3.03,7.14,4.54,11.32,4.54,2.94,0,5.34-.86,7.2-2.59,1.85-1.73,2.78-3.81,2.78-6.24,0-2.94-1.03-5.42-3.1-7.42-2.07-2-6.19-4.54-12.37-7.61-6.18-3.07-10.23-5.84-12.15-8.32-1.92-2.43-2.88-5.5-2.88-9.21,0-4.82,1.65-8.85,4.96-12.09,3.3-3.24,7.58-4.86,12.82-4.86,2.3,0,5.09.49,8.38,1.47,2.17.64,3.62.96,4.35.96.68,0,1.22-.15,1.6-.45.38-.3.83-.96,1.34-1.98h2.11Z"/>
    </g>
  </g>
</svg>